%TF.GenerationSoftware,KiCad,Pcbnew,(6.0.0-rc1-19-g83300c0b61)*%
%TF.CreationDate,2021-11-25T18:24:14-08:00*%
%TF.ProjectId,autotunemic,6175746f-7475-46e6-956d-69632e6b6963,rev?*%
%TF.SameCoordinates,Original*%
%TF.FileFunction,Soldermask,Top*%
%TF.FilePolarity,Negative*%
%FSLAX46Y46*%
G04 Gerber Fmt 4.6, Leading zero omitted, Abs format (unit mm)*
G04 Created by KiCad (PCBNEW (6.0.0-rc1-19-g83300c0b61)) date 2021-11-25 18:24:14*
%MOMM*%
%LPD*%
G01*
G04 APERTURE LIST*
G04 Aperture macros list*
%AMRoundRect*
0 Rectangle with rounded corners*
0 $1 Rounding radius*
0 $2 $3 $4 $5 $6 $7 $8 $9 X,Y pos of 4 corners*
0 Add a 4 corners polygon primitive as box body*
4,1,4,$2,$3,$4,$5,$6,$7,$8,$9,$2,$3,0*
0 Add four circle primitives for the rounded corners*
1,1,$1+$1,$2,$3*
1,1,$1+$1,$4,$5*
1,1,$1+$1,$6,$7*
1,1,$1+$1,$8,$9*
0 Add four rect primitives between the rounded corners*
20,1,$1+$1,$2,$3,$4,$5,0*
20,1,$1+$1,$4,$5,$6,$7,0*
20,1,$1+$1,$6,$7,$8,$9,0*
20,1,$1+$1,$8,$9,$2,$3,0*%
G04 Aperture macros list end*
%ADD10C,0.500000*%
%ADD11R,1.550000X1.300000*%
%ADD12RoundRect,0.200000X0.200000X0.275000X-0.200000X0.275000X-0.200000X-0.275000X0.200000X-0.275000X0*%
%ADD13RoundRect,0.200000X-0.200000X-0.275000X0.200000X-0.275000X0.200000X0.275000X-0.200000X0.275000X0*%
%ADD14C,3.500000*%
%ADD15RoundRect,0.250000X0.650000X-0.325000X0.650000X0.325000X-0.650000X0.325000X-0.650000X-0.325000X0*%
%ADD16RoundRect,0.250000X0.325000X0.650000X-0.325000X0.650000X-0.325000X-0.650000X0.325000X-0.650000X0*%
%ADD17RoundRect,0.028800X-0.706200X-0.211200X0.706200X-0.211200X0.706200X0.211200X-0.706200X0.211200X0*%
%ADD18RoundRect,0.250000X-0.325000X-0.650000X0.325000X-0.650000X0.325000X0.650000X-0.325000X0.650000X0*%
%ADD19R,1.600000X1.600000*%
%ADD20C,1.600000*%
%ADD21C,3.000000*%
%ADD22RoundRect,0.250000X-0.650000X0.325000X-0.650000X-0.325000X0.650000X-0.325000X0.650000X0.325000X0*%
%ADD23C,0.500000*%
%ADD24R,0.600000X0.522000*%
%ADD25R,1.500000X1.500000*%
%ADD26C,1.500000*%
%ADD27R,1.300000X1.600000*%
%ADD28R,2.000000X1.600000*%
%ADD29R,1.700000X1.700000*%
%ADD30O,1.700000X1.700000*%
%ADD31R,2.000000X0.900000*%
%ADD32R,0.900000X2.000000*%
%ADD33R,5.000000X5.000000*%
%ADD34RoundRect,0.200000X0.275000X-0.200000X0.275000X0.200000X-0.275000X0.200000X-0.275000X-0.200000X0*%
%ADD35RoundRect,0.150000X0.825000X0.150000X-0.825000X0.150000X-0.825000X-0.150000X0.825000X-0.150000X0*%
G04 APERTURE END LIST*
D10*
%TO.C,MK_mic1*%
X172623000Y-151038000D02*
G75*
G03*
X172623000Y-151038000I-665000J0D01*
G01*
%TD*%
D11*
%TO.C,SW_record1*%
X153584000Y-153090000D03*
X161544000Y-153090000D03*
X153584000Y-148590000D03*
X161544000Y-148590000D03*
%TD*%
D12*
%TO.C,R_IO21*%
X176213000Y-132588000D03*
X174563000Y-132588000D03*
%TD*%
D13*
%TO.C,R_p1*%
X131446000Y-121412000D03*
X133096000Y-121412000D03*
%TD*%
D14*
%TO.C,REF\u002A\u002A*%
X103069000Y-106680000D03*
%TD*%
D15*
%TO.C,C_amp1*%
X132080000Y-134522000D03*
X132080000Y-131572000D03*
%TD*%
D16*
%TO.C,C_bc2*%
X128524000Y-127508000D03*
X125574000Y-127508000D03*
%TD*%
D17*
%TO.C,U_amplifier1*%
X123126000Y-135971996D03*
X123126000Y-136621996D03*
X123126000Y-137271996D03*
X123126000Y-137921996D03*
X127426000Y-137921996D03*
X127426000Y-137271996D03*
X127426000Y-136621996D03*
X127426000Y-135971996D03*
%TD*%
D18*
%TO.C,C_bc1*%
X119732000Y-127254000D03*
X122682000Y-127254000D03*
%TD*%
D19*
%TO.C,J_usb1*%
X107408000Y-117658000D03*
D20*
X107408000Y-120158000D03*
X107408000Y-122158000D03*
X107408000Y-124658000D03*
D21*
X104698000Y-114588000D03*
X104698000Y-127728000D03*
%TD*%
D12*
%TO.C,R_ampp1*%
X132842000Y-137160000D03*
X131192000Y-137160000D03*
%TD*%
D18*
%TO.C,C_amp3*%
X120494000Y-143764000D03*
X123444000Y-143764000D03*
%TD*%
D22*
%TO.C,C_p2*%
X136398000Y-121412000D03*
X136398000Y-124362000D03*
%TD*%
D12*
%TO.C,R_IO22*%
X176276000Y-124460000D03*
X174626000Y-124460000D03*
%TD*%
D14*
%TO.C,REF\u002A\u002A*%
X203145000Y-106680000D03*
%TD*%
D12*
%TO.C,R_IO13*%
X176276000Y-122428000D03*
X174626000Y-122428000D03*
%TD*%
%TO.C,R_IO19*%
X176150000Y-134620000D03*
X174500000Y-134620000D03*
%TD*%
%TO.C,R_IO17*%
X176150000Y-140462000D03*
X174500000Y-140462000D03*
%TD*%
D23*
%TO.C,MK_mic1*%
X171958000Y-151038000D03*
D24*
X172858000Y-153112000D03*
X172858000Y-152290000D03*
X171058000Y-152290000D03*
X171058000Y-153112000D03*
X171958000Y-153112000D03*
%TD*%
D25*
%TO.C,U_display1*%
X202609500Y-142929500D03*
D26*
X202609500Y-140389500D03*
X202609500Y-137849500D03*
X202609500Y-135309500D03*
X202609500Y-132769500D03*
X202609500Y-130229500D03*
X202609500Y-127689500D03*
X202609500Y-125149500D03*
X202609500Y-122609500D03*
X187369500Y-122609500D03*
X187369500Y-125149500D03*
X187369500Y-127689500D03*
X187369500Y-130229500D03*
X187369500Y-132769500D03*
X187369500Y-135309500D03*
X187369500Y-137849500D03*
X187369500Y-140389500D03*
X187369500Y-142929500D03*
%TD*%
D14*
%TO.C,REF\u002A\u002A*%
X203145000Y-153924000D03*
%TD*%
D27*
%TO.C,RV_pot1*%
X110958000Y-134112000D03*
D28*
X109708000Y-137012000D03*
D27*
X108458000Y-134112000D03*
%TD*%
D29*
%TO.C,J_aout1*%
X109220000Y-146304000D03*
D30*
X109220000Y-143764000D03*
%TD*%
D12*
%TO.C,R_IO16*%
X176150000Y-142494000D03*
X174500000Y-142494000D03*
%TD*%
%TO.C,R_IO18*%
X176150000Y-136652000D03*
X174500000Y-136652000D03*
%TD*%
D16*
%TO.C,C_amp2*%
X123444000Y-148590000D03*
X120494000Y-148590000D03*
%TD*%
D13*
%TO.C,R_pd1*%
X164212000Y-148590000D03*
X165862000Y-148590000D03*
%TD*%
D22*
%TO.C,C_amp4*%
X131318000Y-141224000D03*
X131318000Y-144174000D03*
%TD*%
D12*
%TO.C,R_IO15*%
X176150000Y-138430000D03*
X174500000Y-138430000D03*
%TD*%
D14*
%TO.C,REF\u002A\u002A*%
X103069000Y-153924000D03*
%TD*%
D31*
%TO.C,U_MCU1*%
X146190000Y-121235000D03*
X146190000Y-122505000D03*
X146190000Y-123775000D03*
X146190000Y-125045000D03*
X146190000Y-126315000D03*
X146190000Y-127585000D03*
X146190000Y-128855000D03*
X146190000Y-130125000D03*
X146190000Y-131395000D03*
X146190000Y-132665000D03*
X146190000Y-133935000D03*
X146190000Y-135205000D03*
X146190000Y-136475000D03*
X146190000Y-137745000D03*
D32*
X148975000Y-138745000D03*
X150245000Y-138745000D03*
X151515000Y-138745000D03*
X152785000Y-138745000D03*
X154055000Y-138745000D03*
X155325000Y-138745000D03*
X156595000Y-138745000D03*
X157865000Y-138745000D03*
X159135000Y-138745000D03*
X160405000Y-138745000D03*
D31*
X163190000Y-137745000D03*
X163190000Y-136475000D03*
X163190000Y-135205000D03*
X163190000Y-133935000D03*
X163190000Y-132665000D03*
X163190000Y-131395000D03*
X163190000Y-130125000D03*
X163190000Y-128855000D03*
X163190000Y-127585000D03*
X163190000Y-126315000D03*
X163190000Y-125045000D03*
X163190000Y-123775000D03*
X163190000Y-122505000D03*
X163190000Y-121235000D03*
D33*
X153690000Y-128735000D03*
%TD*%
D29*
%TO.C,J_1*%
X177546000Y-110236000D03*
D30*
X175006000Y-110236000D03*
X172466000Y-110236000D03*
%TD*%
D11*
%TO.C,SW_flash1*%
X187821000Y-148590000D03*
X179861000Y-148590000D03*
X179861000Y-153090000D03*
X187821000Y-153090000D03*
%TD*%
%TO.C,SW_reset1*%
X122342000Y-114300000D03*
X130302000Y-114300000D03*
X130302000Y-109800000D03*
X122342000Y-109800000D03*
%TD*%
D34*
%TO.C,R_amp2*%
X115062000Y-148590000D03*
X115062000Y-146940000D03*
%TD*%
D13*
%TO.C,R_amp1*%
X124714000Y-132334000D03*
X126364000Y-132334000D03*
%TD*%
D35*
%TO.C,U_bc1*%
X125476000Y-122428000D03*
X125476000Y-121158000D03*
X125476000Y-119888000D03*
X125476000Y-118618000D03*
X120526000Y-118618000D03*
X120526000Y-119888000D03*
X120526000Y-121158000D03*
X120526000Y-122428000D03*
%TD*%
D12*
%TO.C,R_IO23*%
X176148000Y-144526000D03*
X174498000Y-144526000D03*
%TD*%
M02*
